<svg width="14" height="14" viewBox="0 0 14 14" fill="none" xmlns="http://www.w3.org/2000/svg">
<path fill-rule="evenodd" clip-rule="evenodd" d="M5.72918 0.0666504C2.63639 0.0666504 0.129181 2.57386 0.129181 5.66665C0.129181 8.75945 2.63639 11.2667 5.72918 11.2667C7.05944 11.2667 8.28137 10.8028 9.24206 10.0281L12.6383 13.4242C12.8726 13.6586 13.2525 13.6586 13.4868 13.4242C13.7211 13.1899 13.7211 12.81 13.4868 12.5757L10.0906 9.17953C10.8653 8.21884 11.3292 6.99691 11.3292 5.66665C11.3292 2.57386 8.82198 0.0666504 5.72918 0.0666504ZM1.32918 5.66665C1.32918 3.2366 3.29913 1.26665 5.72918 1.26665C8.15923 1.26665 10.1292 3.2366 10.1292 5.66665C10.1292 8.0967 8.15923 10.0667 5.72918 10.0667C3.29913 10.0667 1.32918 8.0967 1.32918 5.66665Z" fill="#0B1726"/>
</svg>
